<?xml version="1.0" encoding="UTF-8" standalone="no"?>
<!-- Created with Inkscape (http://www.inkscape.org/) -->

<svg
   xmlns:dc="http://purl.org/dc/elements/1.1/"
   xmlns:cc="http://creativecommons.org/ns#"
   xmlns:rdf="http://www.w3.org/1999/02/22-rdf-syntax-ns#"
   xmlns:svg="http://www.w3.org/2000/svg"
   xmlns="http://www.w3.org/2000/svg"
   xmlns:sodipodi="http://sodipodi.sourceforge.net/DTD/sodipodi-0.dtd"
   xmlns:inkscape="http://www.inkscape.org/namespaces/inkscape"
   width="210mm"
   height="297mm"
   viewBox="0 0 744.09448819 1052.3622047"
   id="svg3824"
   version="1.1"
   inkscape:version="0.91 r13725"
   sodipodi:docname="dessin2.svg">
  <defs
     id="defs3826" />
  <sodipodi:namedview
     id="base"
     pagecolor="#ffffff"
     bordercolor="#666666"
     borderopacity="1.0"
     inkscape:pageopacity="0.0"
     inkscape:pageshadow="2"
     inkscape:zoom="0.35"
     inkscape:cx="375"
     inkscape:cy="295.8292"
     inkscape:document-units="px"
     inkscape:current-layer="layer1"
     showgrid="false"
     inkscape:window-width="1366"
     inkscape:window-height="704"
     inkscape:window-x="0"
     inkscape:window-y="27"
     inkscape:window-maximized="1" />
  <metadata
     id="metadata3829">
    <rdf:RDF>
      <cc:Work
         rdf:about="">
        <dc:format>image/svg+xml</dc:format>
        <dc:type
           rdf:resource="http://purl.org/dc/dcmitype/StillImage" />
        <dc:title></dc:title>
      </cc:Work>
    </rdf:RDF>
  </metadata>
  <g
     inkscape:label="Calque 1"
     inkscape:groupmode="layer"
     id="layer1">
    <text
       xml:space="preserve"
       style="font-style:normal;font-variant:normal;font-weight:normal;font-stretch:normal;font-size:129.20335388px;line-height:125%;font-family:Aladin;-inkscape-font-specification:'Aladin, Normal';text-align:start;letter-spacing:0px;word-spacing:0px;writing-mode:lr-tb;text-anchor:start;fill:#000000;fill-opacity:1;stroke:none;stroke-width:1px;stroke-linecap:butt;stroke-linejoin:miter;stroke-opacity:1"
       x="65.146484"
       y="400.87558"
       id="text3539"
       sodipodi:linespacing="125%"><tspan
         sodipodi:role="line"
         id="tspan3541"
         x="65.146484"
         y="400.87558"><tspan
           style="fill:#228b22"
           id="tspan3543">Sounton</tspan><tspan
           id="tspan3781"
           style="fill:#ff8c00">.me</tspan></tspan></text>
    <g
       id="g3737"
       transform="matrix(0.31493986,0.06721732,-0.06721732,0.31493986,592.28237,265.00162)">
      <g
         id="g3754"
         transform="matrix(0.75685202,0.21388701,-0.21388701,0.75685202,99.040339,78.469363)">
        <g
           style="fill:#2f4f4f"
           id="g3702">
          <path
             style="fill:#2f4f4f"
             inkscape:connector-curvature="0"
             d="m 214.3,17.593 c -7.92,-1.951 -16.184,0.062 -18.255,4.552 -40.051,92.862 -27.998,198.26 -68.001,291.13 -2.065,4.499 2.52,9.69 10.443,11.646 7.92,1.952 14.399,-0.507 14.655,-5.448 7.76,-100.83 67.419,-188.53 75.197,-289.36 0.25,-4.941 -6.11,-10.569 -14.04,-12.527 z"
             id="path3704" />
        </g>
        <path
           style="fill:#2f4f4f"
           inkscape:connector-curvature="0"
           d="m 143.1,322.37 c 7.764,-100.83 67.422,-188.54 75.2,-289.36 0.255,-4.936 -6.108,-10.564 -14.039,-12.522 -2.101,-0.518 -4.222,-0.749 -6.249,-0.736 3.437,-2.736 9.967,-3.71 16.287,-2.153 7.931,1.958 14.294,7.586 14.039,12.522 -7.778,100.83 -67.438,188.53 -75.197,289.36 -0.219,4.212 -4.964,6.608 -11.264,6.02 0.72,-0.89 1.16,-1.93 1.22,-3.13 z"
           id="path3706" />
        <g
           style="fill:#ff8c00;fill-opacity:1"
           id="g3708">
          <linearGradient
             id="SVGID_1_"
             y2="404.57001"
             gradientUnits="userSpaceOnUse"
             x2="0.3159"
             gradientTransform="matrix(-0.5412,-0.8409,-0.8409,0.5412,397.54,216.9)"
             y1="404.57001"
             x1="0.3159">
            <stop
               style="stop-color:#C0870F"
               offset="0"
               id="stop3711" />
            <stop
               style="stop-color:#A17105"
               offset=".2753"
               id="stop3713" />
            <stop
               style="stop-color:#7B5500"
               offset=".5787"
               id="stop3715" />
            <stop
               style="stop-color:#5D3E00"
               offset="1"
               id="stop3717" />
          </linearGradient>
          <path
             style="fill:#ff8c00;fill-opacity:1"
             inkscape:connector-curvature="0"
             d="M 57.165,435.59"
             id="path3719" />
          <path
             style="fill:#ff8c00;fill-opacity:1"
             inkscape:connector-curvature="0"
             d="m 12.213,399.96 c 0,0 82.931,16.837 101.96,-65.62 19.03,-82.46 151.34,104.46 -101.96,65.62 z"
             id="path3721" />
          <path
             style="fill:#ff8c00;fill-opacity:1"
             inkscape:connector-curvature="0"
             d="m 143.91,317.02 c 23.989,24.293 30.271,87.696 -89.504,82.714 -15.547,3.658 -29.708,2.827 -36.774,1.999 182.3,26.43 158.72,-66.99 126.28,-84.71 z M 12.9,401.03 c 0,0 1.73,0.352 4.73,0.704 -1.561,-0.23 -3.135,-0.45 -4.73,-0.7 z"
             id="path3723" />
          <g
             style="fill:#ff8c00;fill-opacity:1"
             id="g3725">
            <path
               style="fill:#ff8c00;fill-opacity:1"
               inkscape:connector-curvature="0"
               d="m 41.127,388.57 c 0,0 62.779,3.702 75.317,-57.879 12.55,-61.6 116.17,60.09 -75.313,57.88 z"
               id="path3727" />
            <path
               style="fill:#ff8c00;fill-opacity:1"
               inkscape:connector-curvature="0"
               d="m 141.94,317.28 c 12.823,17.394 10.593,51.419 -57.347,61.816 -15.66,9.046 -32.235,10.482 -39.333,10.644 131.25,0.47 119.52,-58.65 96.68,-72.46 z M 41.68,389.71 c 0,0 1.309,0.084 3.576,0.029 -1.188,-0.01 -2.373,-0.02 -3.576,-0.03 z"
               id="path3729" />
          </g>
        </g>
      </g>
    </g>
    <text
       sodipodi:linespacing="125%"
       id="text3783"
       y="616.11469"
       x="109.38766"
       style="font-style:normal;font-variant:normal;font-weight:normal;font-stretch:normal;font-size:129.20335388px;line-height:125%;font-family:Aladin;-inkscape-font-specification:'Aladin, Normal';text-align:start;letter-spacing:0px;word-spacing:0px;writing-mode:lr-tb;text-anchor:start;fill:#000000;fill-opacity:1;stroke:none;stroke-width:1px;stroke-linecap:butt;stroke-linejoin:miter;stroke-opacity:1"
       xml:space="preserve"><tspan
         y="616.11469"
         x="109.38766"
         id="tspan3785"
         sodipodi:role="line"><tspan
           id="tspan3787"
           style="fill:#228b22">Sounton</tspan><tspan
           style="fill:#ff8c00"
           id="tspan3789">.me</tspan></tspan></text>
  </g>
</svg>
