<?xml version="1.0" encoding="UTF-8" standalone="no"?>
<!-- Created with Inkscape (http://www.inkscape.org/) -->

<svg
   xmlns:dc="http://purl.org/dc/elements/1.1/"
   xmlns:cc="http://creativecommons.org/ns#"
   xmlns:rdf="http://www.w3.org/1999/02/22-rdf-syntax-ns#"
   xmlns:svg="http://www.w3.org/2000/svg"
   xmlns="http://www.w3.org/2000/svg"
   xmlns:sodipodi="http://sodipodi.sourceforge.net/DTD/sodipodi-0.dtd"
   xmlns:inkscape="http://www.inkscape.org/namespaces/inkscape"
   width="661.5401"
   height="243.45212"
   viewBox="0 0 661.54009 243.45211"
   id="svg5113"
   version="1.1"
   inkscape:version="0.48.5 r10040"
   sodipodi:docname="foton-logo.svg">
  <defs
     id="defs5115" />
  <sodipodi:namedview
     id="base"
     pagecolor="#ffffff"
     bordercolor="#666666"
     borderopacity="1.0"
     inkscape:pageopacity="0.0"
     inkscape:pageshadow="2"
     inkscape:zoom="0.35"
     inkscape:cx="1011.9905"
     inkscape:cy="-421.26783"
     inkscape:document-units="px"
     inkscape:current-layer="layer1"
     showgrid="false"
     fit-margin-top="0"
     fit-margin-left="0"
     fit-margin-right="0"
     fit-margin-bottom="0"
     inkscape:window-width="1366"
     inkscape:window-height="703"
     inkscape:window-x="0"
     inkscape:window-y="27"
     inkscape:window-maximized="1" />
  <metadata
     id="metadata5118">
    <rdf:RDF>
      <cc:Work
         rdf:about="">
        <dc:format>image/svg+xml</dc:format>
        <dc:type
           rdf:resource="http://purl.org/dc/dcmitype/StillImage" />
        <dc:title></dc:title>
      </cc:Work>
    </rdf:RDF>
  </metadata>
  <g
     inkscape:label="Calque 1"
     inkscape:groupmode="layer"
     id="layer1"
     transform="translate(736.99045,132.35775)">
    <rect
       transform="matrix(0.48187318,0.87624097,0.87624097,-0.48187318,0,0)"
       style="fill:#5c9942"
       x="-803.76752"
       y="-1271.6937"
       width="0"
       height="0.021389345"
       id="rect687" />
    <g
       transform="matrix(0.72635882,0,0,0.72635882,-1024.1823,-366.70651)"
       id="g5821">
      <g
         transform="matrix(2.9443927,0,0,3.2776946,381.9335,317.57081)"
         id="g4613">
        <path
           style="fill:#033b59"
           inkscape:connector-curvature="0"
           d="m 52.907,81.807 c 0.206,0.534 0.753,0.855 1.326,0.813 19.124,-1.307 38.25,-0.813 57.126,1.444 2.381,0.285 4.776,-0.919 5.56,-3.185 0.678,-1.955 -0.844,-3.923 -2.913,-3.995 -20.333,-0.688 -40.587,0.618 -60.479,3.87 -0.49,0.083 -0.796,0.586 -0.62,1.053 z"
           id="path4615" />
        <path
           style="fill:#00996d"
           inkscape:connector-curvature="0"
           d="m 51.726,61.44 c -0.131,0.503 0.287,0.974 0.807,0.938 20.67,-1.434 41.353,-0.893 61.764,1.582 2.014,0.246 3.754,-1.522 3.2,-3.473 -0.673,-2.374 -2.917,-3.919 -5.385,-3.984 -19.841,-0.515 -39.609,0.754 -59.066,3.765 -0.633,0.096 -1.16,0.551 -1.32,1.172 z"
           id="path4617" />
        <path
           style="fill:#f7921e"
           inkscape:connector-curvature="0"
           d="m 61.282,70.17 c -0.473,0.079 -0.769,0.532 -0.739,1.009 0.03,0.463 0.396,0.854 0.858,0.818 20.812,-1.551 33.398,-0.466 53.117,2.209 2.156,0.292 4.19,-1.219 4.259,-3.392 0.072,-2.218 -1.757,-3.984 -3.974,-4.074 -20.257,-0.808 -32.942,0.017 -53.521,3.43 z"
           id="path4619" />
        <path
           style="fill:#f7921e"
           inkscape:connector-curvature="0"
           d="m 100.395,41.899 c 1.333,0.072 1.817,-1.727 0.632,-2.343 -0.844,-0.44 -1.714,-0.846 -2.61,-1.219 -9.459,-3.939 -19.68,-3.287 -28.196,0.93 -1.198,0.592 -0.633,2.369 0.702,2.325 9.839,-0.317 19.673,-0.213 29.472,0.307 z"
           id="path4621" />
        <path
           style="fill:#033b59"
           inkscape:connector-curvature="0"
           d="m 67.728,48.877 c -1.009,0.136 -1.937,0.671 -2.507,1.514 -0.378,0.558 0.063,1.296 0.736,1.26 17.251,-0.923 27.972,-0.258 44.323,1.609 1.88,0.213 3.198,-1.859 2.095,-3.397 -1.709,-2.385 -4.573,-3.62 -7.506,-3.639 -14.027,-0.09 -22.537,0.687 -37.141,2.653 z"
           id="path4623" />
        <path
           style="fill:#00996d"
           inkscape:connector-curvature="0"
           d="m 72.656,98.666 c -1.491,0.162 -1.793,2.21 -0.399,2.76 9.629,3.801 20.029,2.897 28.572,-1.677 1.341,-0.718 0.71,-2.724 -0.811,-2.704 -9.164,0.109 -18.294,0.65 -27.362,1.621 z"
           id="path4625" />
        <path
           style="fill:#f7921e"
           inkscape:connector-curvature="0"
           d="m 111.562,90.72 c 1.198,-1.534 0.098,-3.754 -1.849,-3.807 -16.281,-0.424 -28.788,0.175 -45.206,2.647 -0.616,0.09 -0.942,0.802 -0.544,1.279 0.545,0.66 1.38,1.008 2.234,0.97 14.282,-0.68 24.54,0.167 38.128,1.679 2.735,0.306 5.546,-0.598 7.237,-2.768 z"
           id="path4627" />
      </g>
      <g
         style="font-size:472.09335327px;font-style:normal;font-variant:normal;font-weight:normal;font-stretch:normal;text-align:start;line-height:125%;letter-spacing:0px;word-spacing:0px;writing-mode:lr-tb;text-anchor:start;fill:#033b59;fill-opacity:1;stroke:none;font-family:Abel;-inkscape-font-specification:'Abel, Normal'"
         id="text13015"
         transform="translate(-18.182745,-2.0203051)">
        <path
           d="m 518.45241,351.62545 q -7.14595,0 -13.36983,2.76618 -5.99338,2.53565 -10.60366,7.14594 -4.61029,4.61029 -7.37646,10.83417 -2.53566,6.22389 -2.53566,13.36983 l 0,33.42458 55.09293,0 0,26.97018 -55.09293,0 0,209.0765 -28.35326,0 0,-209.0765 -42.64515,0 0,-26.97018 42.64515,0 0,-32.04149 q 0,-12.9088 4.8408,-24.204 4.8408,-11.52572 13.36983,-20.05475 8.52903,-8.52903 19.82423,-13.36983 11.2952,-4.8408 24.20401,-4.8408 l 26.04812,0 0,26.97017 -26.04812,0 z"
           id="path13050"
           inkscape:connector-curvature="0"
           style="fill:#033b59;fill-opacity:1" />
        <path
           d="m 873.67498,655.21283 q -12.9088,0 -24.43452,-4.8408 -11.2952,-4.8408 -19.82423,-13.36983 -8.29851,-8.52903 -13.36983,-19.82424 -4.8408,-11.2952 -4.8408,-24.204 l 0,-146.83763 -42.41464,0 0,-26.97018 42.41464,0 0,-56.70652 28.35326,-4.61029 0,61.31681 59.93373,0 0,26.97018 -59.93373,0 0,148.22072 q 0,7.14594 2.53566,13.36983 2.76617,5.99337 7.37646,10.60366 4.61028,4.61028 10.83417,7.37646 6.22389,2.53565 13.36983,2.53565 l 25.81761,0 0,26.97018 -25.81761,0 z"
           id="path13054"
           inkscape:connector-curvature="0"
           style="fill:#033b59;fill-opacity:1" />
        <path
           d="m 1109.4912,590.4383 q 0,14.29189 -5.5324,26.97018 -5.3018,12.67829 -14.7529,22.12937 -9.4511,9.45109 -22.1294,14.98344 -12.6783,5.30183 -26.9702,5.30183 l -18.9021,0 q -14.2919,0 -26.9702,-5.30183 -12.67829,-5.53235 -22.12938,-14.98344 -9.45109,-9.45108 -14.98343,-22.12937 -5.30183,-12.67829 -5.30183,-26.97018 l 0,-106.49762 q 0,-14.29189 5.30183,-26.97018 5.53234,-12.67828 14.98343,-22.12937 9.45109,-9.45109 22.12938,-14.75292 12.6783,-5.53234 26.9702,-5.53234 l 18.9021,0 q 14.2919,0 26.9702,5.53234 12.6783,5.30183 22.1294,14.75292 9.4511,9.45109 14.7529,22.12937 5.5324,12.67829 5.5324,26.97018 l 0,106.49762 0,0 z m -28.3533,-108.11122 q 0,-8.52903 -3.2272,-15.90549 -3.2272,-7.60697 -8.7595,-13.13932 -5.5324,-5.53234 -13.1394,-8.75954 -7.3764,-3.2272 -15.9055,-3.2272 l -18.9021,0 q -8.5291,0 -16.136,3.2272 -7.37649,3.2272 -12.90883,8.75954 -5.53235,5.53235 -8.75955,13.13932 -3.2272,7.37646 -3.2272,15.90549 l 0,109.72482 q 0,8.52903 3.2272,16.13601 3.2272,7.37645 8.75955,12.9088 5.53234,5.53234 12.90883,8.75954 7.6069,3.2272 16.136,3.2272 l 18.9021,0 q 8.5291,0 15.9055,-3.2272 7.607,-3.2272 13.1394,-8.75954 5.5323,-5.53235 8.7595,-12.9088 3.2272,-7.60698 3.2272,-16.13601 l 0,-109.72482 z"
           id="path13056"
           inkscape:connector-curvature="0"
           style="fill:#033b59;fill-opacity:1" />
        <path
           d="m 1295.9773,655.21283 0,-172.88575 q 0,-8.52903 -3.2272,-15.90549 -3.2272,-7.60697 -8.7596,-13.13932 -5.5323,-5.53234 -13.1393,-8.75954 -7.3765,-3.2272 -15.9055,-3.2272 l -18.9022,0 q -8.529,0 -16.136,3.2272 -7.3764,3.2272 -12.9088,8.75954 -5.5323,5.53235 -8.7595,13.13932 -3.2272,7.37646 -3.2272,15.90549 l 0,172.88575 -28.3533,0 0,-236.04668 9.4511,0 15.4445,23.97349 q 9.6816,-13.13931 24.204,-20.74629 14.7529,-7.83748 32.0415,-7.83748 l 7.1459,0 q 14.2919,0 26.9702,5.53234 12.6783,5.30183 22.1294,14.75292 9.451,9.45109 14.7529,22.12937 5.5323,12.67829 5.5323,26.97018 l 0,171.27215 -28.3532,0 z"
           id="path13058"
           inkscape:connector-curvature="0"
           style="fill:#033b59;fill-opacity:1" />
      </g>
      <text
         sodipodi:linespacing="125%"
         id="text6249"
         y="582.84961"
         x="-338.23901"
         style="font-size:16.13813019px;font-style:normal;font-weight:normal;line-height:125%;letter-spacing:0px;word-spacing:0px;fill:#000000;fill-opacity:1;stroke:none;font-family:sans-serif"
         xml:space="preserve"><tspan
           y="582.84961"
           x="-338.23901"
           id="tspan6251"
           sodipodi:role="line" /></text>
    </g>
  </g>
</svg>
