<?xml version="1.0" encoding="UTF-8" standalone="no"?>
<!-- Created with Inkscape (http://www.inkscape.org/) -->

<svg
   xmlns:dc="http://purl.org/dc/elements/1.1/"
   xmlns:cc="http://creativecommons.org/ns#"
   xmlns:rdf="http://www.w3.org/1999/02/22-rdf-syntax-ns#"
   xmlns:svg="http://www.w3.org/2000/svg"
   xmlns="http://www.w3.org/2000/svg"
   xmlns:sodipodi="http://sodipodi.sourceforge.net/DTD/sodipodi-0.dtd"
   xmlns:inkscape="http://www.inkscape.org/namespaces/inkscape"
   width="395.72363mm"
   height="70.550339mm"
   viewBox="0 0 1402.1704 249.98151"
   id="svg2"
   version="1.1"
   inkscape:version="0.91 r13725"
   sodipodi:docname="sounton.me.svg">
  <defs
     id="defs4" />
  <sodipodi:namedview
     id="base"
     pagecolor="#ffffff"
     bordercolor="#666666"
     borderopacity="1.0"
     inkscape:pageopacity="0.0"
     inkscape:pageshadow="2"
     inkscape:zoom="0.36951923"
     inkscape:cx="958.93853"
     inkscape:cy="-437.29006"
     inkscape:document-units="px"
     inkscape:current-layer="g3487"
     showgrid="false"
     fit-margin-top="0"
     fit-margin-left="0"
     fit-margin-right="0"
     fit-margin-bottom="0"
     inkscape:window-width="1366"
     inkscape:window-height="704"
     inkscape:window-x="0"
     inkscape:window-y="27"
     inkscape:window-maximized="1" />
  <metadata
     id="metadata7">
    <rdf:RDF>
      <cc:Work
         rdf:about="">
        <dc:format>image/svg+xml</dc:format>
        <dc:type
           rdf:resource="http://purl.org/dc/dcmitype/StillImage" />
        <dc:title></dc:title>
      </cc:Work>
    </rdf:RDF>
  </metadata>
  <g
     inkscape:label="Calque 1"
     inkscape:groupmode="layer"
     id="layer1"
     transform="translate(-2196.8573,-464.20745)">
    <flowRoot
       xml:space="preserve"
       id="flowRoot3342"
       style="font-style:normal;font-weight:normal;font-size:12px;line-height:125%;font-family:Sans;letter-spacing:0px;word-spacing:0px;fill:#000000;fill-opacity:1;stroke:none;stroke-width:1px;stroke-linecap:butt;stroke-linejoin:miter;stroke-opacity:1"><flowRegion
         id="flowRegion3344"><rect
           id="rect3346"
           width="2034.2858"
           height="1274.2858"
           x="-591.42859"
           y="1095.2194" /></flowRegion><flowPara
         id="flowPara3348" /></flowRoot>    <g
       id="g3416"
       transform="matrix(2.662312,0,0,2.662312,4555.0281,-214.69111)">
      <g
         id="g3478">
        <g
           id="g3446">
          <g
             id="g3487">
            <g
               inkscape:transform-center-x="6574.2857"
               inkscape:transform-center-y="-2688.5714"
               style="font-style:normal;font-weight:normal;font-size:205.19937134px;line-height:125%;font-family:Sans;letter-spacing:0px;word-spacing:0px;fill:#9acd32;fill-opacity:1;stroke:none;stroke-width:1px;stroke-linecap:butt;stroke-linejoin:miter;stroke-opacity:1"
               id="text3336">
              <path
                 d="m -850.61212,270.42847 0,7.64662 q -3.4278,-1.75784 -7.11927,-2.63676 -3.69147,-0.87893 -7.64663,-0.87893 -6.02061,0 -9.0529,1.84574 -2.98833,1.84574 -2.98833,5.53721 0,2.81256 2.15336,4.43856 2.15336,1.58206 8.65738,3.03228 l 2.76861,0.61525 q 8.61344,1.84574 12.21702,5.22959 3.64753,3.3399 3.64753,9.36052 0,6.8556 -5.44932,10.8547 -5.40537,3.99909 -14.89774,3.99909 -3.95515,0 -8.26187,-0.79103 -4.26277,-0.74708 -9.00895,-2.28519 l 0,-8.34977 q 4.4825,2.32915 8.83317,3.51569 4.35066,1.1426 8.61344,1.1426 5.713,0 8.78922,-1.93363 3.07623,-1.97757 3.07623,-5.53721 0,-3.29596 -2.24125,-5.0538 -2.19731,-1.75785 -9.71209,-3.38386 l -2.81256,-0.65919 q -7.51478,-1.58206 -10.85469,-4.83407 -3.3399,-3.29596 -3.3399,-9.00896 0,-6.94349 4.92196,-10.72285 4.92197,-3.77937 13.97487,-3.77937 4.4825,0 8.43766,0.65919 3.95515,0.6592 7.29505,1.97758 z"
                 style="fill:#000000"
                 id="path4189" />
              <path
                 d="m -815.98257,274.6473 q -6.50403,0 -10.2834,5.09775 -3.77936,5.0538 -3.77936,13.88697 0,8.83317 3.73542,13.93092 3.77936,5.05381 10.32734,5.05381 6.46008,0 10.23944,-5.09775 3.77937,-5.09775 3.77937,-13.88698 0,-8.74528 -3.77937,-13.84303 -3.77936,-5.14169 -10.23944,-5.14169 z m 0,-6.8556 q 10.54707,0 16.56769,6.8556 6.02062,6.85559 6.02062,18.98472 0,12.08519 -6.02062,18.98473 -6.02062,6.85559 -16.56769,6.85559 -10.59102,0 -16.61164,-6.85559 -5.97667,-6.89954 -5.97667,-18.98473 0,-12.12913 5.97667,-18.98472 6.02062,-6.8556 16.61164,-6.8556 z"
                 style="fill:#000000"
                 id="path4191" />
              <path
                 d="m -780.86962,298.77372 0,-29.79547 8.08609,0 0,29.48785 q 0,6.98743 2.72466,10.50312 2.72466,3.47174 8.17398,3.47174 6.54797,0 10.32734,-4.17488 3.82331,-4.17488 3.82331,-11.38204 l 0,-27.90579 8.08609,0 0,49.21966 -8.08609,0 0,-7.55874 q -2.94439,4.48251 -6.85559,6.67981 -3.86726,2.15336 -9.00896,2.15336 -8.4816,0 -12.87621,-5.27353 -4.39462,-5.27354 -4.39462,-15.42509 z m 20.34706,-30.98202 0,0 z"
                 style="fill:#000000"
                 id="path4193" />
              <path
                 d="m -681.99083,288.49033 0,29.70758 -8.08609,0 0,-29.44391 q 0,-6.98743 -2.72466,-10.45917 -2.72466,-3.47175 -8.17398,-3.47175 -6.54797,0 -10.32734,4.17488 -3.77936,4.17489 -3.77936,11.38205 l 0,27.8179 -8.13004,0 0,-49.21966 8.13004,0 0,7.64662 q 2.90044,-4.43856 6.81165,-6.63586 3.95515,-2.19731 9.09684,-2.19731 8.48161,0 12.83227,5.27354 4.35067,5.22959 4.35067,15.42509 z"
                 style="fill:#000000"
                 id="path4195" />
              <path
                 d="m -657.77652,255.00338 0,13.97487 16.65558,0 0,6.28429 -16.65558,0 0,26.71925 q 0,6.02062 1.62601,7.73451 1.66995,1.7139 6.72375,1.7139 l 8.30582,0 0,6.76771 -8.30582,0 q -9.36052,0 -12.92016,-3.47175 -3.55963,-3.51569 -3.55963,-12.74437 l 0,-26.71925 -5.93273,0 0,-6.28429 5.93273,0 0,-13.97487 8.13003,0 z"
                 style="fill:#000000"
                 id="path4197" />
              <path
                 d="m -611.36941,274.6473 q -6.50403,0 -10.28339,5.09775 -3.77937,5.0538 -3.77937,13.88697 0,8.83317 3.73542,13.93092 3.77937,5.05381 10.32734,5.05381 6.46008,0 10.23945,-5.09775 3.77936,-5.09775 3.77936,-13.88698 0,-8.74528 -3.77936,-13.84303 -3.77937,-5.14169 -10.23945,-5.14169 z m 0,-6.8556 q 10.54707,0 16.56769,6.8556 6.02062,6.85559 6.02062,18.98472 0,12.08519 -6.02062,18.98473 -6.02062,6.85559 -16.56769,6.85559 -10.59102,0 -16.61163,-6.85559 -5.97668,-6.89954 -5.97668,-18.98473 0,-12.12913 5.97668,-18.98472 6.02061,-6.8556 16.61163,-6.8556 z"
                 style="fill:#000000"
                 id="path4199" />
              <path
                 d="m -534.50763,288.49033 0,29.70758 -8.08609,0 0,-29.44391 q 0,-6.98743 -2.72466,-10.45917 -2.72466,-3.47175 -8.17398,-3.47175 -6.54797,0 -10.32734,4.17488 -3.77936,4.17489 -3.77936,11.38205 l 0,27.8179 -8.13004,0 0,-49.21966 8.13004,0 0,7.64662 q 2.90044,-4.43856 6.81165,-6.63586 3.95515,-2.19731 9.09684,-2.19731 8.48161,0 12.83227,5.27354 4.35067,5.22959 4.35067,15.42509 z"
                 style="fill:#000000"
                 id="path4201" />
              <path
                 d="m -451.31762,278.42666 q 3.03229,-5.44932 7.25111,-8.04214 4.21883,-2.59282 9.93183,-2.59282 7.69057,0 11.86545,5.40537 4.17488,5.36143 4.17488,15.29326 l 0,29.70758 -8.13003,0 0,-29.44391 q 0,-7.07532 -2.50493,-10.50312 -2.50493,-3.4278 -7.64662,-3.4278 -6.2843,0 -9.93183,4.17488 -3.64753,4.17489 -3.64753,11.38205 l 0,27.8179 -8.13003,0 0,-29.44391 q 0,-7.11927 -2.50493,-10.50312 -2.50493,-3.4278 -7.73452,-3.4278 -6.1964,0 -9.84393,4.21883 -3.64753,4.17488 -3.64753,11.3381 l 0,27.8179 -8.13003,0 0,-49.21966 8.13003,0 0,7.64662 q 2.76861,-4.52645 6.63587,-6.67981 3.86726,-2.15336 9.18474,-2.15336 5.36143,0 9.09685,2.72466 3.77936,2.72466 5.58115,7.9103 z"
                 style="fill:#d00000"
                 id="path4203" />
              <path
                 d="m -359.82179,291.56655 0,3.95516 -37.17842,0 q 0.52735,8.34976 5.00986,12.74437 4.52645,4.35067 12.56859,4.35067 4.65829,0 9.00896,-1.1426 4.39461,-1.1426 8.70133,-3.4278 l 0,7.64663 q -4.35067,1.84573 -8.92107,2.81255 -4.57039,0.96681 -9.27263,0.96681 -11.77756,0 -18.6771,-6.85559 -6.8556,-6.8556 -6.8556,-18.54527 0,-12.08518 6.50403,-19.16051 6.54797,-7.11927 17.6224,-7.11927 9.93182,0 15.68876,6.41614 5.80089,6.37218 5.80089,17.35871 z m -8.08609,-2.37309 q -0.0879,-6.63586 -3.73542,-10.59101 -3.60358,-3.95515 -9.58025,-3.95515 -6.7677,0 -10.85469,3.82331 -4.04305,3.82331 -4.65829,10.7668 l 28.82865,-0.0439 z"
                 style="fill:#d00000"
                 id="path4205" />
            </g>
            <path
               inkscape:connector-curvature="0"
               d="m -875.02418,339.41107 c 4.54114,0.27441 9.07921,0.63324 13.62339,0.82319 20.78683,0.86903 42.7128,1.2087 63.36242,1.41926 53.71494,0.54772 107.40797,-0.18872 161.1189,-0.9216 80.56101,-0.74469 161.12985,-1.87083 241.59371,-6.8921 9.81262,-0.96951 19.70644,-1.05299 29.46595,-2.74389 1.13231,-0.19617 2.25879,-0.4477 3.37368,-0.75376 0.58392,-0.16029 2.2256,-1.01476 1.71452,-0.64306 -3.77796,2.74748 -7.70288,5.19929 -11.55432,7.79895 0.43098,0.14111 0.2987,0.16303 -0.0395,-0.4621 0,0 12.29894,-8.78511 12.29894,-8.78511 l 0,0 c 0.53194,0.88063 1.0141,1.6465 0.978,2.80134 -4.26432,2.9696 -8.4415,6.12303 -12.79288,8.90881 -0.43219,0.27668 -0.97237,0.16747 -1.46157,0.217 -0.96846,0.0981 -1.93838,0.18158 -2.90963,0.22582 -8.80553,0.39983 -17.6157,-0.19096 -26.42297,-0.0517 -41.30108,-0.37467 -82.6086,-1.18759 -123.91148,-0.92296 -17.60005,0.11276 -35.19832,0.48028 -52.79749,0.72041 -19.25598,0.26273 -38.51196,0.52549 -57.76796,0.78824 -82.88646,1.13097 -165.84725,1.981 -248.60803,7.96196 0,0 10.73628,-9.48869 10.73628,-9.48869 z"
               id="path3438"
               style="opacity:1;fill:#000000;fill-opacity:1;fill-rule:nonzero;stroke:#000000;stroke-width:0;stroke-miterlimit:4;stroke-dasharray:none;stroke-opacity:1" />
            <g
               id="g4164"
               transform="matrix(0.81298367,0,0,0.81298367,-94.145306,58.98745)">
              <path
                 style="opacity:1;fill:#d00000;fill-opacity:1;fill-rule:nonzero;stroke:#000000;stroke-width:0;stroke-miterlimit:4;stroke-dasharray:none;stroke-opacity:1"
                 inkscape:transform-center-x="1.3091987e-05"
                 inkscape:transform-center-y="-68.168854"
                 d="m -509.22422,318.96702 a 10.817241,10.817241 0 0 1 -13.22001,-7.68494 10.817241,10.817241 0 0 1 7.67374,-13.22652 10.817241,10.817241 0 0 1 13.23302,7.66253 10.817241,10.817241 0 0 1 -7.65132,13.2395 l -2.7997,-10.44865 z"
                 id="path3467"
                 inkscape:connector-curvature="0" />
              <path
                 inkscape:connector-curvature="0"
                 id="path3362"
                 d="m -511.96843,319.43028 12.57845,-0.35939 -12.57845,-5.75014 z"
                 style="fill:#d00000;fill-opacity:1;fill-rule:evenodd;stroke:none;stroke-width:0.37561339px;stroke-linecap:butt;stroke-linejoin:miter;stroke-opacity:1" />
            </g>
          </g>
        </g>
      </g>
    </g>
  </g>
</svg>
