<?xml version="1.0" encoding="UTF-8" standalone="no"?>
<!-- Created with Inkscape (http://www.inkscape.org/) -->

<svg
   xmlns:dc="http://purl.org/dc/elements/1.1/"
   xmlns:cc="http://creativecommons.org/ns#"
   xmlns:rdf="http://www.w3.org/1999/02/22-rdf-syntax-ns#"
   xmlns:svg="http://www.w3.org/2000/svg"
   xmlns="http://www.w3.org/2000/svg"
   xmlns:sodipodi="http://sodipodi.sourceforge.net/DTD/sodipodi-0.dtd"
   xmlns:inkscape="http://www.inkscape.org/namespaces/inkscape"
   width="395.72363mm"
   height="70.550339mm"
   viewBox="0 0 1402.1704 249.98151"
   id="svg2"
   version="1.1"
   inkscape:version="0.91 r13725"
   sodipodi:docname="sounton.me.svg">
  <defs
     id="defs4" />
  <sodipodi:namedview
     id="base"
     pagecolor="#ffffff"
     bordercolor="#666666"
     borderopacity="1.0"
     inkscape:pageopacity="0.0"
     inkscape:pageshadow="2"
     inkscape:zoom="0.36951923"
     inkscape:cx="958.93853"
     inkscape:cy="103.95377"
     inkscape:document-units="px"
     inkscape:current-layer="g3487"
     showgrid="false"
     fit-margin-top="0"
     fit-margin-left="0"
     fit-margin-right="0"
     fit-margin-bottom="0"
     inkscape:window-width="1366"
     inkscape:window-height="704"
     inkscape:window-x="0"
     inkscape:window-y="27"
     inkscape:window-maximized="1" />
  <metadata
     id="metadata7">
    <rdf:RDF>
      <cc:Work
         rdf:about="">
        <dc:format>image/svg+xml</dc:format>
        <dc:type
           rdf:resource="http://purl.org/dc/dcmitype/StillImage" />
        <dc:title></dc:title>
      </cc:Work>
    </rdf:RDF>
  </metadata>
  <g
     inkscape:label="Calque 1"
     inkscape:groupmode="layer"
     id="layer1"
     transform="translate(-2196.8573,-464.20745)">
    <flowRoot
       xml:space="preserve"
       id="flowRoot3342"
       style="font-style:normal;font-weight:normal;font-size:12px;line-height:125%;font-family:Sans;letter-spacing:0px;word-spacing:0px;fill:#000000;fill-opacity:1;stroke:none;stroke-width:1px;stroke-linecap:butt;stroke-linejoin:miter;stroke-opacity:1"><flowRegion
         id="flowRegion3344"><rect
           id="rect3346"
           width="2034.2858"
           height="1274.2858"
           x="-591.42859"
           y="1095.2194" /></flowRegion><flowPara
         id="flowPara3348" /></flowRoot>    <g
       id="g3416"
       transform="matrix(2.662312,0,0,2.662312,4555.0281,-214.69111)">
      <g
         id="g3478">
        <g
           id="g3446">
          <g
             id="g3487">
            <text
               xml:space="preserve"
               style="font-style:normal;font-weight:normal;font-size:205.19937134px;line-height:125%;font-family:Sans;letter-spacing:0px;word-spacing:0px;fill:#9acd32;fill-opacity:1;stroke:none;stroke-width:1px;stroke-linecap:butt;stroke-linejoin:miter;stroke-opacity:1"
               x="-890.47125"
               y="318.19791"
               id="text3336"
               sodipodi:linespacing="125%"
               inkscape:transform-center-x="6574.2857"
               inkscape:transform-center-y="-2688.5714"><tspan
                 sodipodi:role="line"
                 id="tspan3338"
                 x="-890.47125"
                 y="318.19791"
                 style="font-style:normal;font-variant:normal;font-weight:normal;font-stretch:normal;font-size:90.00166321px;line-height:125%;font-family:'Aksara Bali Galang';-inkscape-font-specification:'Aksara Bali Galang, Normal';text-align:start;writing-mode:lr-tb;text-anchor:start;fill:#9acd32"><tspan
                   style="fill:#000000"
                   id="tspan3457">sounton </tspan><tspan
                   style="fill:#d00000"
                   id="tspan3459">me</tspan></tspan></text>
            <path
               inkscape:connector-curvature="0"
               d="m -875.02418,339.41107 c 4.54114,0.27441 9.07921,0.63324 13.62339,0.82319 20.78683,0.86903 42.7128,1.2087 63.36242,1.41926 53.71494,0.54772 107.40797,-0.18872 161.1189,-0.9216 80.56101,-0.74469 161.12985,-1.87083 241.59371,-6.8921 9.81262,-0.96951 19.70644,-1.05299 29.46595,-2.74389 1.13231,-0.19617 2.25879,-0.4477 3.37368,-0.75376 0.58392,-0.16029 2.2256,-1.01476 1.71452,-0.64306 -3.77796,2.74748 -7.70288,5.19929 -11.55432,7.79895 0.43098,0.14111 0.2987,0.16303 -0.0395,-0.4621 0,0 12.29894,-8.78511 12.29894,-8.78511 l 0,0 c 0.53194,0.88063 1.0141,1.6465 0.978,2.80134 -4.26432,2.9696 -8.4415,6.12303 -12.79288,8.90881 -0.43219,0.27668 -0.97237,0.16747 -1.46157,0.217 -0.96846,0.0981 -1.93838,0.18158 -2.90963,0.22582 -8.80553,0.39983 -17.6157,-0.19096 -26.42297,-0.0517 -41.30108,-0.37467 -82.6086,-1.18759 -123.91148,-0.92296 -17.60005,0.11276 -35.19832,0.48028 -52.79749,0.72041 -19.25598,0.26273 -38.51196,0.52549 -57.76796,0.78824 -82.88646,1.13097 -165.84725,1.981 -248.60803,7.96196 0,0 10.73628,-9.48869 10.73628,-9.48869 z"
               id="path3438"
               style="opacity:1;fill:#000000;fill-opacity:1;fill-rule:nonzero;stroke:#000000;stroke-width:0;stroke-miterlimit:4;stroke-dasharray:none;stroke-opacity:1" />
            <g
               id="g4164"
               transform="matrix(0.81298367,0,0,0.81298367,-94.145306,60.489904)">
              <path
                 inkscape:transform-center-y="-68.168854"
                 inkscape:transform-center-x="1.3091987e-05"
                 d="m -509.22422,318.96702 a 10.817241,10.817241 0 0 1 -13.22001,-7.68494 10.817241,10.817241 0 0 1 7.67374,-13.22652 10.817241,10.817241 0 0 1 13.23302,7.66253 10.817241,10.817241 0 0 1 -7.65132,13.2395 l -2.7997,-10.44865 z"
                 sodipodi:end="1.3089969"
                 sodipodi:start="1.3123864"
                 sodipodi:ry="10.817241"
                 sodipodi:rx="10.817241"
                 sodipodi:cy="308.50894"
                 sodipodi:cx="-511.98849"
                 sodipodi:type="arc"
                 id="path3467"
                 style="opacity:1;fill:#d00000;fill-opacity:1;fill-rule:nonzero;stroke:#000000;stroke-width:0;stroke-miterlimit:4;stroke-dasharray:none;stroke-opacity:1" />
              <path
                 inkscape:connector-curvature="0"
                 id="path3362"
                 d="m -511.96843,319.43028 12.57845,-0.35939 -12.57845,-5.75014 z"
                 style="fill:#d00000;fill-opacity:1;fill-rule:evenodd;stroke:none;stroke-width:0.37561339px;stroke-linecap:butt;stroke-linejoin:miter;stroke-opacity:1" />
            </g>
          </g>
        </g>
      </g>
    </g>
  </g>
</svg>
