<?xml version="1.0" encoding="UTF-8" standalone="no"?>
<svg
   xmlns:dc="http://purl.org/dc/elements/1.1/"
   xmlns:cc="http://creativecommons.org/ns#"
   xmlns:rdf="http://www.w3.org/1999/02/22-rdf-syntax-ns#"
   xmlns:svg="http://www.w3.org/2000/svg"
   xmlns="http://www.w3.org/2000/svg"
   version="1.1"
   id="svg2"
   viewBox="0 0 1847.6117 339.75644"
   height="95.886818mm"
   width="521.43707mm">
  <defs
     id="defs4" />
  <metadata
     id="metadata7">
    <rdf:RDF>
      <cc:Work
         rdf:about="">
        <dc:format>image/svg+xml</dc:format>
        <dc:type
           rdf:resource="http://purl.org/dc/dcmitype/StillImage" />
        <dc:title></dc:title>
      </cc:Work>
    </rdf:RDF>
  </metadata>
  <g
     transform="translate(201.8384,405.73261)"
     id="layer1">
    <g
       id="g4243">
      <path
         style="font-style:normal;font-variant:normal;font-weight:normal;font-stretch:normal;font-size:medium;line-height:125%;font-family:Yesteryear;-inkscape-font-specification:'Yesteryear, Normal';text-align:start;letter-spacing:0px;word-spacing:0px;writing-mode:lr-tb;text-anchor:start;fill:#228b22;fill-opacity:1;stroke:none;stroke-width:1px;stroke-linecap:butt;stroke-linejoin:miter;stroke-opacity:1"
         d="m 1204.4941,-227.35352 c -4.2,9.36926 -8.1576,19.1414 -11.873,29.31836 -0.1292,0.34831 -0.2505,0.6931 -0.3789,1.04102 a 72.73098,72.73098 0 0 1 15.9414,45.41602 72.73098,72.73098 0 0 1 -39.666,64.775386 c 1.4968,1.369323 3.0611,2.738095 4.7187,4.107422 3.5539,3.06924 7.1889,5.815194 10.9043,8.238281 3.5539,2.584626 7.1063,4.602794 10.6602,6.05664 3.3922,1.615387 6.4628,2.423829 9.209,2.423829 3.5538,0 5.814,-1.695571 6.7832,-5.087891 6.1384,-15.507742 12.6827,-29.400767 19.6289,-41.677737 6.9462,-12.27696 13.7304,-23.01884 20.3535,-32.22656 6.6231,-9.36926 12.8409,-17.28453 18.6562,-23.74609 5.8155,-6.6231 10.6622,-12.03437 14.5391,-16.23438 -4.0385,11.63081 -7.6735,22.93722 -10.9043,33.92188 -3.2308,10.98464 -6.0574,20.92004 -8.4805,29.80468 -2.2615,8.88465 -4.0377,16.23538 -5.33,22.050785 -1.1308,5.653867 -1.6973,9.045008 -1.6973,10.175781 2.9077,3.230782 5.9782,5.976742 9.209,8.238282 3.3923,2.261553 6.6222,4.120372 9.6914,5.574218 3.2308,1.615394 6.2206,2.746425 8.9668,3.392578 2.9076,0.8077 5.329,1.210938 7.2676,1.210938 3.7153,0 6.058,-1.614917 7.0273,-4.845703 7.7539,-19.061606 15.5079,-35.216699 23.2617,-48.462889 7.7539,-13.2462 15.0239,-24.31067 21.8086,-33.19531 6.7847,-9.04618 12.8411,-16.31627 18.1719,-21.8086 5.3308,-5.49232 9.613,-10.17579 12.8437,-14.05273 -2.9076,7.26925 -5.9781,15.18452 -9.2089,23.74609 -3.0693,8.56156 -6.0572,17.28333 -8.9649,26.16797 -2.9077,8.72311 -5.5729,17.28552 -7.9961,25.68555 -2.423,8.40002 -4.3606,15.91206 -5.8144,22.535153 0,2.907707 1.2097,5.895602 3.6328,8.964844 2.423,3.06924 5.3322,5.815201 8.7246,8.238281 3.3923,2.584627 6.9447,4.685388 10.6601,6.300781 3.7154,1.776927 6.7859,2.664063 9.209,2.664063 3.877,0 8.5604,-1.292327 14.0528,-3.876953 5.4923,-2.584627 11.3893,-5.975775 17.6894,-10.175781 6.2999,-4.200016 12.7616,-8.966095 19.3848,-14.296876 6.7846,-5.330792 13.2463,-10.661402 19.3847,-15.992192 6.3001,-5.33078 12.1146,-10.5001 17.4454,-15.50781 5.3308,-5.16925 9.7743,-9.53012 13.3281,-13.08398 -1.7769,-1.93847 -3.7164,-4.03924 -5.8164,-6.30078 -1.9385,-2.26156 -3.6341,-4.11843 -5.0879,-5.57227 -1.9385,1.61539 -4.7651,4.0368 -8.4805,7.26758 -3.7154,3.23078 -7.9169,6.86582 -12.6015,10.9043 -4.5232,3.87693 -9.2874,7.83456 -14.295,11.87304 -5.0078,4.03848 -9.8544,7.75417 -14.539,11.14649 -4.5232,3.39231 -8.5615,6.13827 -12.1153,8.23828 -3.5538,2.10001 -6.2191,3.15039 -7.9961,3.15039 -0.9692,0 -1.4531,-0.48389 -1.4531,-1.45313 0,-1.77693 0.5645,-4.60353 1.6953,-8.48046 1.1308,-3.87694 2.5845,-8.40107 4.3614,-13.57032 1.777,-5.16924 3.797,-10.66116 6.0586,-16.47656 2.2615,-5.97694 4.5216,-11.87404 6.7832,-17.68945 2.2615,-5.97694 4.3622,-11.71081 6.3007,-17.20313 2.1,-5.49232 3.7957,-10.2584 5.0879,-14.29687 0.3231,-1.13078 0.5651,-2.01791 0.7266,-2.66406 0.1615,-0.8077 0.2441,-1.45484 0.2441,-1.93946 0,-2.42308 -1.6169,-5.24968 -4.8476,-8.48047 -3.0693,-3.23077 -6.785,-6.37997 -11.1465,-9.44922 -4.2,-3.06924 -8.3996,-5.6539 -12.5996,-7.7539 -4.2,-2.10001 -7.3492,-3.15039 -9.4492,-3.15039 -1.4538,0 -3.474,0.64519 -6.0586,1.9375 -2.5846,1.29231 -6.2178,3.95761 -10.9024,7.99609 -4.5232,4.03847 -10.4202,9.85493 -17.6894,17.44727 -7.2693,7.43079 -16.3156,17.36422 -27.1387,29.80273 1.7769,-5.49233 3.5531,-10.82293 5.3301,-15.99219 1.9384,-5.33078 3.8779,-10.58076 5.8164,-15.75 0.9693,-2.42309 0.8079,-4.27996 -0.4844,-5.57226 -1.4539,-1.6154 -3.9579,-3.63551 -7.5117,-6.0586 -3.5539,-2.58461 -7.3502,-5.00797 -11.3887,-7.26953 -3.877,-2.42308 -7.5927,-4.44124 -11.1465,-6.05664 -3.3923,-1.61539 -5.8156,-2.42383 -7.2695,-2.42383 -2.4231,0.8077 -5.0884,2.01938 -7.9961,3.63477 -2.9077,1.61538 -6.6234,4.44199 -11.1465,8.48047 -4.3615,4.03847 -9.9341,9.69364 -16.7187,16.96289 -6.6232,7.26926 -15.0223,16.96075 -25.1992,29.07617 1.7769,-5.49233 3.6338,-10.90359 5.5722,-16.23437 1.9385,-5.33078 3.878,-10.5001 5.8164,-15.50782 -6.9462,-6.30002 -14.6195,-11.79193 -23.0195,-16.47656 -8.2385,-4.68463 -15.7505,-8.64227 -22.5352,-11.87305 z"
         id="path4213" />
      <path
         style="font-style:normal;font-variant:normal;font-weight:normal;font-stretch:normal;font-size:medium;line-height:125%;font-family:Yesteryear;-inkscape-font-specification:'Yesteryear, Normal';text-align:start;letter-spacing:0px;word-spacing:0px;writing-mode:lr-tb;text-anchor:start;fill:#228b22;fill-opacity:1;stroke:none;stroke-width:1px;stroke-linecap:butt;stroke-linejoin:miter;stroke-opacity:1"
         id="path4215"
         d="m 1645.7732,-143.03067 q -22.2924,21.80777 -42.1616,36.58859 -19.6271,14.780811 -37.5579,23.746234 -17.9308,8.965408 -34.4077,12.842346 -16.2347,3.876938 -31.7425,3.876938 -6.5423,0 -14.5385,-4.846176 -7.9962,-4.846163 -14.7808,-11.873108 -7.0269,-6.784643 -11.6308,-14.296193 -4.6039,-7.511571 -4.6039,-12.842361 0,-19.86929 5.5731,-36.34627 5.3309,-16.71929 14.2962,-30.04625 8.9654,-13.32697 20.354,-23.50392 11.6307,-10.17696 23.9884,-16.9616 12.6002,-6.78463 24.9579,-10.17696 12.3577,-3.39231 22.777,-3.39231 7.5115,0 14.7808,4.36155 7.5115,4.36155 13.5692,10.66157 6.0577,6.30002 9.6924,13.32697 3.8769,6.78464 3.8769,11.87312 0,8.23849 -7.027,16.96159 -6.7846,8.4808 -19.3846,17.4462 -12.6001,8.96542 -30.2886,18.41546 -17.6885,9.20771 -39.0117,18.65775 -0.7269,5.8154 -0.7269,11.38849 0,7.511571 3.1501,10.176971 3.3922,2.66538 12.3577,2.66538 15.9923,0 30.0462,-5.33078 14.2962,-5.330791 27.3808,-13.811581 13.0848,-8.4808 25.2002,-19.38468 12.1154,-10.90389 23.9885,-22.05007 l 11.8731,11.8731 z m -85.2925,-60.57711 q -4.8463,0 -10.6616,5.33079 -5.8154,5.08847 -11.6308,13.56927 -5.8155,8.4808 -11.1462,19.62699 -5.3308,10.90387 -9.2078,22.777 8.9654,-5.81541 17.4463,-12.35774 8.7231,-6.54233 15.5077,-13.56928 6.7846,-7.26925 10.9038,-14.78081 4.1193,-7.51157 4.1193,-15.02312 0,-2.18079 -1.4538,-3.87694 -1.2116,-1.69616 -3.8769,-1.69616 z" />
      <path
         style="font-style:normal;font-variant:normal;font-weight:normal;font-stretch:normal;font-size:medium;line-height:125%;font-family:Yesteryear;-inkscape-font-specification:'Yesteryear, Normal';text-align:start;letter-spacing:0px;word-spacing:0px;writing-mode:lr-tb;text-anchor:start;fill:#00bfff;fill-opacity:1;stroke:none;stroke-width:1px;stroke-linecap:butt;stroke-linejoin:miter;stroke-opacity:1"
         id="path4198"
         d="m -201.8384,-159.23196 q 6.27159,-5.99891 14.45192,-13.63389 7.90766,-7.63497 15.81531,-16.63334 8.18033,-8.99836 14.99727,-19.36012 7.08963,-10.36175 11.17979,-22.35956 1.09071,-6.2716 3.27213,-13.08854 2.4541,-7.08961 5.18089,-12.81585 2.99944,-5.72623 5.72622,-9.54371 2.72677,-3.8175 4.9082,-3.8175 3.27213,1.90875 9.8164,7.3623 6.54427,5.18088 13.08852,11.17979 6.544271,5.99891 11.452469,11.17978 5.180883,4.9082 5.180883,5.99892 -3.272141,12.54318 -3.272141,22.63224 0.272685,10.08909 1.63607,19.90548 1.636071,9.8164 3.272129,20.99618 1.908754,10.90711 1.908754,25.35903 0,8.72569 -2.999456,20.17815 -2.726783,11.17979 -9.816396,20.17815 13.906553,-8.18034 27.540443,-18.2694 13.633885,-10.36176 24.268317,-19.36012 12.543174,-10.63443 23.995638,-21.26887 l 12.2704973,13.36121 q -8.9983653,8.45301 -19.6327953,17.99674 -10.361754,9.54371 -21.814217,18.81475 -11.179787,9.27105 -22.904928,17.724061 -11.725144,8.452999 -23.177611,14.997267 -11.452456,6.544269 -22.086896,10.361753 -10.63442,3.817485 -19.90546,3.817485 -7.90766,0 -17.45138,-3.817485 -9.54372,-3.817484 -17.99672,-9.271039 -8.45301,-5.453555 -14.72461,-11.452467 -6.27158,-5.998912 -7.3623,-10.089065 0,-0.54536 1.09072,-2.18143 1.09071,-1.90874 2.72678,-3.81749 1.36339,-1.90874 2.99944,-3.27214 1.3634,-1.63605 2.18143,-1.63605 1.63607,0 6.54427,2.4541 4.9082,2.45409 16.36066,2.45409 6.27159,0 10.63443,-3.27214 4.63553,-3.27212 7.63498,-8.72568 2.99944,-5.45355 4.36284,-12.54317 1.36339,-7.08962 1.36339,-14.99728 0,-11.45246 -1.09071,-22.08689 -1.09072,-10.90711 -2.4541,-20.99619 -4.63552,5.45356 -10.63443,11.45247 -5.99891,5.99891 -12.2705,11.99782 -5.99891,5.72623 -12.2705,11.45247 -5.9989,5.45354 -10.9071,9.81639 l -13.08854,-13.36121 0,0 z" />
      <path
         style="font-style:normal;font-variant:normal;font-weight:normal;font-stretch:normal;font-size:medium;line-height:125%;font-family:Yesteryear;-inkscape-font-specification:'Yesteryear, Normal';text-align:start;letter-spacing:0px;word-spacing:0px;writing-mode:lr-tb;text-anchor:start;fill:#00bfff;fill-opacity:1;stroke:none;stroke-width:1px;stroke-linecap:butt;stroke-linejoin:miter;stroke-opacity:1"
         id="path4200"
         d="m 11.940939,-111.78603 q 0,8.18033 5.998909,8.18033 6.271587,0 16.63334,-9.8164 10.361753,-10.08908 21.54154,-25.35903 -0.545356,-2.99946 -0.818034,-5.18087 0,-2.4541 0,-4.36285 0,-5.45355 1.090711,-12.81585 1.363388,-7.63498 6.271588,-17.1787 3.272133,-7.3623 7.907654,-14.45191 3.817487,-6.2716 9.271041,-13.36121 5.453555,-7.3623 11.99782,-13.63388 l 1.636066,-1.63608 q 2.726778,3.27213 7.089616,8.99837 4.63553,5.45356 8.99837,11.45246 4.63552,5.72624 7.90765,10.63443 3.54481,4.9082 4.36285,6.81695 0,11.72513 -4.36285,23.45027 -4.09016,11.72515 -11.17978,23.17761 16.36066,-1.0907 30.26722,-8.18033 14.17924,-7.36229 29.4492,-23.72296 2.4541,2.4541 6.27158,6.81694 4.09017,4.09017 6.54427,7.08963 -11.45246,11.99782 -22.63225,19.90547 -10.90711,7.90765 -22.0869,12.54317 -10.90711,4.63553 -22.35957,6.81694 -11.45246,1.90874 -23.450282,1.90874 -9.271043,9.8164 -19.905473,17.99674 -10.634432,8.180326 -21.814217,14.179238 -10.907109,5.998912 -21.814217,9.27104 -10.907109,3.27214 -20.7235066,3.27214 -8.1803313,0 -16.9060184,-4.908198 -8.725686,-4.908198 -15.815307,-11.997823 -7.08962,-7.362298 -11.725141,-15.542637 -4.635521,-8.18033 -4.635521,-14.45191 0,-20.72351 5.726232,-41.17434 5.453554,-20.45082 17.451373,-38.17487 11.725142,-17.99674 29.994548,-31.63062 18.542085,-13.63388 43.901112,-20.72351 0.818033,-0.54535 2.726777,-0.81803 2.181422,-0.27268 3.54481,-0.27268 3.817488,0 7.907654,2.99946 4.362844,2.72678 7.907654,6.27158 3.817487,3.54481 6.271586,7.08962 2.454101,3.27213 2.454101,4.36285 -0.545356,1.36338 -4.090166,3.54481 -3.54481,1.90874 -9.543721,6.81694 -5.998909,4.9082 -14.17924,14.17924 -8.180332,8.99837 -17.996729,23.99564 -14.724596,22.0869 -19.905473,40.08362 -5.180876,17.72405 -5.180876,27.54046 z" />
      <path
         style="font-style:normal;font-variant:normal;font-weight:normal;font-stretch:normal;font-size:medium;line-height:125%;font-family:Yesteryear;-inkscape-font-specification:'Yesteryear, Normal';text-align:start;letter-spacing:0px;word-spacing:0px;writing-mode:lr-tb;text-anchor:start;fill:#00bfff;fill-opacity:1;stroke:none;stroke-width:1px;stroke-linecap:butt;stroke-linejoin:miter;stroke-opacity:1"
         id="path4202"
         d="m 304.52413,-107.96855 q 0,1.63606 1.63607,1.63606 2.99945,0 8.99835,-3.5448 6.2716,-3.54481 14.17925,-8.99837 7.90766,-5.45355 16.63334,-12.27049 8.72568,-6.81694 16.63334,-13.08854 7.90765,-6.54425 14.17924,-11.99781 6.54426,-5.45355 9.81639,-8.18034 2.45411,2.4541 5.72624,6.2716 3.54481,3.81748 6.54427,7.08961 -5.99891,5.99891 -15.26995,14.45192 -8.99837,8.45301 -19.90548,17.72405 -10.63442,8.99837 -22.35958,17.99673 -11.45245,8.725693 -22.35956,15.815306 -10.90711,6.81694 -20.45083,11.179794 -9.54372,4.362842 -15.81531,4.362842 -4.63552,0 -10.36176,-2.999456 -5.72622,-2.726784 -10.90711,-7.362298 -4.90819,-4.362841 -8.45299,-9.816396 -3.27215,-5.453555 -3.27215,-10.361752 0,-4.36284 3.27215,-16.63335 3.27212,-12.2705 7.90764,-28.63115 -12.2705,16.63334 -23.99564,29.44919 -11.72514,12.54317 -21.54153,21.541536 -9.8164,8.998367 -17.1787,14.451922 -7.36229,5.726228 -10.90711,8.180327 -2.18142,1.363385 -5.18088,1.908742 -2.99946,0.818041 -5.45355,0.818041 -5.18088,0 -11.45246,-3.27214 -6.27159,-2.999456 -11.45247,-7.63497 -5.45355,-4.635526 -8.99836,-10.361753 -3.81749,-5.726239 -3.81749,-10.907115 0,-5.99891 4.09016,-19.90547 3.81749,-13.90656 10.63444,-33.26668 6.54426,-19.36012 15.54262,-43.35575 8.99837,-23.99565 19.36012,-50.44538 0.54536,-1.36339 0.81804,-1.09072 0.54535,0 1.63606,0 5.18088,0.81804 14.17924,4.36284 8.99837,3.27215 17.45138,7.3623 8.72568,4.09017 14.99728,7.90766 6.27158,3.54481 6.27158,4.90819 -0.81803,1.90876 -4.36284,8.99837 -3.27214,7.08963 -7.90766,17.1787 -4.36284,9.81639 -9.54372,21.54154 -4.9082,11.45246 -9.27104,22.0869 -4.09017,10.63442 -6.81694,19.36012 -2.72678,8.453 -2.72678,12.54317 0,1.09071 1.09071,1.09071 2.18143,0 9.54372,-5.72623 7.3623,-5.99891 17.99673,-18.54209 10.90711,-12.54317 24.54099,-32.17597 13.63389,-19.90547 28.35849,-47.7186 l 7.63497,-21.54154 q 0.81804,-2.18142 3.54481,-2.18142 1.90874,0 8.18034,3.81749 6.54425,3.5448 13.63388,8.453 7.3623,4.63553 13.08852,9.54373 5.72624,4.63552 6.2716,6.54426 0,0.81803 -0.27269,2.99946 -0.27267,1.90874 -0.81802,3.27213 -2.72679,7.3623 -6.27159,17.45138 -3.54481,9.81639 -7.3623,20.7235 -3.54481,10.63443 -7.08962,21.54154 -3.54481,10.90711 -6.54427,20.45083 -2.72677,9.27104 -4.63551,16.63334 -1.63607,7.08961 -1.63607,10.36175 z" />
      <path
         style="font-style:normal;font-variant:normal;font-weight:normal;font-stretch:normal;font-size:medium;line-height:125%;font-family:Yesteryear;-inkscape-font-specification:'Yesteryear, Normal';text-align:start;letter-spacing:0px;word-spacing:0px;writing-mode:lr-tb;text-anchor:start;fill:#00bfff;fill-opacity:1;stroke:none;stroke-width:1px;stroke-linecap:butt;stroke-linejoin:miter;stroke-opacity:1"
         id="path4204"
         d="m 462.94988,-215.67625 q -3.27213,8.7257 -6.54427,17.72405 -3.27212,8.99837 -6.54425,18.54209 17.17869,-19.6328 29.44919,-31.9033 12.54318,-12.54316 20.99618,-19.63279 8.72569,-7.08961 13.90656,-9.54371 5.45356,-2.72679 8.45301,-2.72679 3.54482,0 10.63443,3.54482 7.08962,3.54481 14.17925,8.72568 7.3623,5.18088 12.54317,10.63444 5.45355,5.45355 5.45355,9.54371 0,0.81804 -0.27267,2.18143 -0.27269,1.09071 -0.81804,2.99945 -2.18142,6.81694 -5.72623,16.08798 -3.27213,9.27104 -7.08962,19.36012 -3.81749,9.8164 -7.63497,19.90547 -3.81749,9.81641 -6.81694,18.54209 -2.99946,8.72569 -4.9082,15.26995 -1.90875,6.54427 -1.90875,9.54373 0,1.63606 1.63606,1.63606 2.99946,0 8.99837,-3.54482 5.99891,-3.5448 13.63388,-9.27104 7.90766,-5.72622 16.36067,-12.54316 8.45301,-6.81696 16.08798,-13.36121 7.90765,-6.81694 14.17925,-12.2705 6.27158,-5.45355 9.54371,-8.18034 2.72678,2.4541 5.99891,6.2716 3.27214,3.81748 6.27159,7.08961 -5.9989,5.99891 -14.99727,14.7246 -8.99837,8.45301 -19.6328,17.45137 -10.36175,8.99837 -21.81422,17.99673 -11.17978,8.998365 -21.81422,16.08799 -10.63442,7.089613 -19.90546,11.452467 -9.27105,4.362841 -15.54264,4.362841 -4.09017,0 -10.36175,-2.999456 -6.27158,-2.726783 -12.2705,-7.089625 -5.72622,-4.090169 -9.81639,-9.27104 -4.09017,-5.180882 -4.09017,-10.089081 2.4541,-11.179786 6.54427,-25.359016 4.36284,-14.17924 9.27104,-28.90385 4.9082,-14.99727 10.08908,-29.44919 5.45355,-14.72459 10.36175,-26.99509 l -0.54536,0.54536 q -5.18088,6.27158 -14.99727,16.63333 -9.54372,10.08909 -21.81422,26.17707 -12.2705,15.8153 -25.90438,38.44755 -13.63388,22.35958 -26.72242,53.172156 -1.63606,3.817484 -2.99946,5.998911 -1.36338,2.181427 -5.18087,2.181427 -4.63552,0 -10.63443,-2.726783 -5.72623,-2.4541 -11.72514,-6.816941 -6.27159,-4.090169 -12.2705,-9.27104 -6.27158,-5.180883 -11.17978,-10.361753 0,-1.63607 1.63606,-9.271037 1.36339,-7.63499 4.09017,-19.08745 2.72678,-11.72514 6.81694,-26.44974 4.09017,-14.99727 9.27104,-31.35793 5.18088,-16.36066 11.45246,-33.26668 5.99891,-17.1787 13.08854,-32.99401 11.45245,5.45356 25.35902,13.36121 14.17924,7.90766 26.17706,18.54208 z" />
      <path
         style="font-style:normal;font-variant:normal;font-weight:normal;font-stretch:normal;font-size:medium;line-height:125%;font-family:Yesteryear;-inkscape-font-specification:'Yesteryear, Normal';text-align:start;letter-spacing:0px;word-spacing:0px;writing-mode:lr-tb;text-anchor:start;fill:#00bfff;fill-opacity:1;stroke:none;stroke-width:1px;stroke-linecap:butt;stroke-linejoin:miter;stroke-opacity:1"
         id="path4206"
         d="m 637.19098,-68.975632 q -4.63552,0 -12.27049,-4.362841 -7.3623,-4.09017 -14.45193,-10.361754 -7.08962,-5.998911 -12.27049,-12.54318 -5.18088,-6.544273 -5.18088,-11.179783 0,-8.18034 4.63552,-25.90439 4.36284,-17.72405 11.72514,-40.3563 7.3623,-22.90492 16.63334,-48.80931 9.54372,-25.90438 19.08745,-50.71805 l -38.44756,0 -0.27269,0 q -0.27267,0 -0.27267,-0.54536 0,-1.63607 1.36339,-4.63552 1.09071,-3.27213 2.99945,-6.54426 1.63607,-3.54481 4.09017,-6.2716 2.18142,-2.99944 4.36284,-3.81748 l 35.44811,-1.63606 q 7.63497,-18.54209 14.45192,-34.08472 7.08961,-15.8153 12.54317,-26.9951 1.36338,-2.99945 2.72678,-6.27158 1.63606,-3.54481 4.36284,-6.81694 2.99946,-3.54482 7.63497,-7.08963 4.9082,-3.81748 13.08854,-7.63497 5.99891,-2.99945 14.45191,-6.54427 8.72569,-3.54481 16.90602,-6.54426 8.45301,-2.99946 15.26995,-4.9082 6.81694,-2.18142 9.8164,-2.18142 2.72678,0 2.72678,1.09072 l 0,0.54534 q 0,0.27269 -0.54535,1.3634 -1.63607,2.72677 -5.99892,11.99781 -4.36284,8.99837 -10.90711,22.90493 -6.27158,13.63388 -14.17923,31.35794 -7.63499,17.45137 -15.81531,37.08417 l 65.44264,-2.4541 q 2.72679,0 1.63608,3.27213 -1.09072,3.27214 -4.09017,7.63498 -2.99946,4.36284 -7.08962,8.99837 -3.81749,4.63551 -6.54427,7.08961 -0.54535,0.54536 -2.18142,1.09071 -1.63606,0.54536 -4.09016,0.54536 l -53.99019,0 q -9.8164,23.72296 -18.81477,47.99128 -8.99835,24.26831 -16.08798,46.08253 -7.08962,21.81422 -11.45246,40.08362 -4.09017,18.26941 -4.09017,29.99455 0,1.63607 1.63607,1.63607 2.99945,0 8.99836,-3.27214 5.99892,-3.54481 13.36121,-8.99835 7.63497,-5.45356 16.08798,-11.99783 8.45301,-6.54427 16.08798,-12.81585 7.63499,-6.54427 13.6339,-11.72514 6.27158,-5.45355 9.54371,-8.18034 2.4541,2.4541 5.72624,6.2716 3.54481,3.81748 6.54427,7.08961 -5.99891,5.99891 -14.99728,14.7246 -8.99837,8.45301 -19.63279,17.45137 -10.36176,8.99837 -21.81422,17.99673 -11.17979,8.998365 -22.0869,16.08799 -10.63443,7.089613 -19.90547,11.452467 -9.27104,4.362841 -15.54263,4.362841 z" />
      <path
         style="font-style:normal;font-variant:normal;font-weight:normal;font-stretch:normal;font-size:medium;line-height:125%;font-family:Yesteryear;-inkscape-font-specification:'Yesteryear, Normal';text-align:start;letter-spacing:0px;word-spacing:0px;writing-mode:lr-tb;text-anchor:start;fill:#00bfff;fill-opacity:1;stroke:none;stroke-width:1px;stroke-linecap:butt;stroke-linejoin:miter;stroke-opacity:1"
         id="path4208"
         d="m 771.07571,-111.78603 q 0,8.18033 5.99891,8.18033 6.27158,0 16.63334,-9.8164 10.36175,-10.08908 21.54153,-25.35903 -0.54535,-2.99946 -0.81803,-5.18087 0,-2.4541 0,-4.36285 0,-5.45355 1.09072,-12.81585 1.36338,-7.63498 6.27158,-17.1787 3.27213,-7.3623 7.90766,-14.45191 3.81748,-6.2716 9.27104,-13.36121 5.45355,-7.3623 11.99782,-13.63388 l 1.63607,-1.63608 q 2.72677,3.27213 7.08961,8.99837 4.63553,5.45356 8.99837,11.45246 4.63553,5.72624 7.90765,10.63443 3.54482,4.9082 4.36285,6.81695 0,11.72513 -4.36285,23.45027 -4.09017,11.72515 -11.17978,23.17761 16.36065,-1.0907 30.26722,-8.18033 14.17924,-7.36229 29.44919,-23.72296 2.4541,2.4541 6.2716,6.81694 4.09015,4.09017 6.54425,7.08963 -11.45245,11.99782 -22.63225,19.90547 -10.90711,7.90765 -22.08689,12.54317 -10.90711,4.63553 -22.35956,6.81694 -11.45247,1.90874 -23.45029,1.90874 -9.27104,9.8164 -19.90548,17.99674 -10.63443,8.180326 -21.81421,14.179238 -10.90711,5.998912 -21.81422,9.27104 -10.90711,3.27214 -20.72351,3.27214 -8.18032,0 -16.90602,-4.908198 -8.72568,-4.908198 -15.81531,-11.997823 -7.08961,-7.362298 -11.72513,-15.542637 -4.63552,-8.18033 -4.63552,-14.45191 0,-20.72351 5.72623,-41.17434 5.45355,-20.45082 17.45138,-38.17487 11.72514,-17.99674 29.99454,-31.63062 18.54208,-13.63388 43.90112,-20.72351 0.81803,-0.54535 2.72677,-0.81803 2.18142,-0.27268 3.54481,-0.27268 3.81749,0 7.90765,2.99946 4.36285,2.72678 7.90766,6.27158 3.81748,3.54481 6.27158,7.08962 2.4541,3.27213 2.4541,4.36285 -0.54535,1.36338 -4.09017,3.54481 -3.5448,1.90874 -9.54371,6.81694 -5.99891,4.9082 -14.17924,14.17924 -8.18034,8.99837 -17.99673,23.99564 -14.7246,22.0869 -19.90548,40.08362 -5.18087,17.72405 -5.18087,27.54046 z" />
      <path
         style="font-style:normal;font-variant:normal;font-weight:normal;font-stretch:normal;font-size:medium;line-height:125%;font-family:Yesteryear;-inkscape-font-specification:'Yesteryear, Normal';text-align:start;letter-spacing:0px;word-spacing:0px;writing-mode:lr-tb;text-anchor:start;fill:#00bfff;fill-opacity:1;stroke:none;stroke-width:1px;stroke-linecap:butt;stroke-linejoin:miter;stroke-opacity:1"
         d="m 946.95312,-247.58008 c -4.7264,10.54354 -9.08861,21.54168 -13.08789,32.99414 -4.18105,11.27068 -7.99919,22.36047 -11.45312,33.26758 -3.45391,10.90711 -6.54471,21.35924 -9.27149,31.35742 -2.72678,9.8164 -4.99855,18.63246 -6.8164,26.44922 -1.81785,7.63497 -3.18092,13.9979 -4.08984,19.08789 -1.09072,5.08998 -1.63672,8.180773 -1.63672,9.271486 3.27214,3.453914 6.99862,6.907406 11.17968,10.361328 3.99928,3.453914 8.09043,6.544705 12.27149,9.271485 3.99927,2.90856 7.90712,5.180339 11.72461,6.816406 3.99927,1.817855 7.54441,2.726563 10.63476,2.726563 2.54499,0 4.27076,-0.727356 5.17969,-2.181641 0.90893,-1.454285 1.90929,-3.453058 3,-5.998047 8.72568,-20.541717 17.6334,-38.26549 26.72266,-53.17187 9.08926,-15.08817 17.72395,-27.90374 25.90425,-38.44727 8.1804,-10.72532 15.452,-19.45167 21.8145,-26.17773 6.5443,-6.90784 11.5422,-12.45176 14.9961,-16.63282 l 0.5469,-0.54687 c -3.2722,8.18033 -6.7276,17.1797 -10.3633,26.99609 -3.4539,9.63461 -6.8158,19.45104 -10.0879,29.44922 -3.2721,9.81641 -6.363,19.45147 -9.2715,28.9043 -2.7268,9.45282 -4.9088,17.90423 -6.5449,25.357419 0,3.272132 1.363,6.635922 4.0898,10.089843 2.7268,3.453914 5.9989,6.544706 9.8164,9.271485 3.9993,2.908561 8.0905,5.271988 12.2715,7.089844 4.1811,1.999637 7.6346,2.998047 10.3614,2.998047 4.181,0 9.3623,-1.452768 15.5429,-4.361329 6.1808,-2.908569 12.8167,-6.726716 19.9063,-11.453125 3.2752,-2.183487 6.5925,-4.517592 9.9453,-6.972656 a 72.73098,72.73098 0 0 1 -16.4082,-15.560548 c -2.7021,1.3845 -4.823,2.08203 -6.3535,2.08203 -1.0907,0 -1.6368,-0.54406 -1.6368,-1.63476 0,-1.99964 0.6358,-5.18208 1.9082,-9.54493 0.015,-0.0513 0.034,-0.10863 0.049,-0.16015 a 72.73098,72.73098 0 0 1 -9.1563,-35.1582 72.73098,72.73098 0 0 1 40.0371,-64.95118 c -0.8242,-1.15333 -1.8522,-2.35806 -3.1152,-3.62109 -3.4539,-3.63571 -7.6348,-7.17889 -12.543,-10.63281 -4.7264,-3.45392 -9.4532,-6.36336 -14.1797,-8.72657 -4.7264,-2.36321 -8.2715,-3.54492 -10.6347,-3.54492 -1.9996,0 -4.8174,0.90871 -8.4531,2.72657 -3.454,1.63606 -8.0892,4.81851 -13.9063,9.54492 -5.6353,4.72642 -12.634,11.2707 -20.9961,19.63281 -8.1803,8.18033 -17.99671,18.81381 -29.44921,31.90234 2.18143,-6.36248 4.3635,-12.54405 6.54492,-18.54296 2.18143,-5.99891 4.36155,-11.90553 6.54297,-17.72266 -7.99855,-7.08961 -16.72296,-13.2712 -26.17578,-18.54297 -9.27105,-5.27177 -17.72439,-9.72562 -25.35938,-13.36133 z"
         id="path4210" />
      <g
         id="g4239"
         transform="translate(-84.852814,488.27417)">
        <path
           id="path4237"
           d="m 1179.2598,-698.7793 a 69.87384,69.87384 0 0 0 -30.9043,57.92578 69.87384,69.87384 0 0 0 69.875,69.875 69.87384,69.87384 0 0 0 47.3789,-18.60546 70.588127,70.588127 0 0 1 -2.3614,1.35351 70.588127,70.588127 0 0 1 -6.4394,2.88281 70.588127,70.588127 0 0 1 -6.6973,2.22461 70.588127,70.588127 0 0 1 -6.8847,1.54493 70.588127,70.588127 0 0 1 -7.0039,0.8496 70.588127,70.588127 0 0 1 -4.9922,0.17774 70.588127,70.588127 0 0 1 -7.0489,-0.35352 70.588127,70.588127 0 0 1 -6.9765,-1.05273 70.588127,70.588127 0 0 1 -6.836,-1.74609 70.588127,70.588127 0 0 1 -6.6269,-2.41993 70.588127,70.588127 0 0 1 -6.3535,-3.06836 70.588127,70.588127 0 0 1 -6.0157,-3.68945 70.588127,70.588127 0 0 1 -5.6171,-4.26953 70.588127,70.588127 0 0 1 -5.1621,-4.80859 70.588127,70.588127 0 0 1 -4.6583,-5.30079 70.588127,70.588127 0 0 1 -4.1035,-5.74023 70.588127,70.588127 0 0 1 -3.5117,-6.12109 70.588127,70.588127 0 0 1 -2.8808,-6.43946 70.588127,70.588127 0 0 1 -2.2266,-6.69531 70.588127,70.588127 0 0 1 -1.5449,-6.88476 70.588127,70.588127 0 0 1 -0.8496,-7.00586 70.588127,70.588127 0 0 1 -0.1778,-4.99219 70.588127,70.588127 0 0 1 0.3535,-7.04688 70.588127,70.588127 0 0 1 1.0547,-6.97656 70.588127,70.588127 0 0 1 1.7461,-6.83789 70.588127,70.588127 0 0 1 2.418,-6.62695 70.588127,70.588127 0 0 1 3.0703,-6.35352 70.588127,70.588127 0 0 1 3.6875,-6.01562 70.588127,70.588127 0 0 1 4.2695,-5.61719 70.588127,70.588127 0 0 1 2.0196,-2.16602 z"
           style="opacity:1;fill:#228b22;fill-opacity:1;stroke:none;stroke-width:5.3670001;stroke-miterlimit:4;stroke-dasharray:none;stroke-opacity:1" />
        <path
           id="circle4231"
           d="m 1179.2598,-698.7793 a 70.588127,70.588127 0 0 0 -2.0196,2.16602 70.588127,70.588127 0 0 0 -4.2695,5.61719 70.588127,70.588127 0 0 0 -3.6875,6.01562 70.588127,70.588127 0 0 0 -3.0703,6.35352 70.588127,70.588127 0 0 0 -2.418,6.62695 70.588127,70.588127 0 0 0 -1.7461,6.83789 70.588127,70.588127 0 0 0 -1.0547,6.97656 70.588127,70.588127 0 0 0 -0.3535,7.04688 70.588127,70.588127 0 0 0 0.1778,4.99219 70.588127,70.588127 0 0 0 0.8496,7.00586 70.588127,70.588127 0 0 0 1.5449,6.88476 70.588127,70.588127 0 0 0 2.2266,6.69531 70.588127,70.588127 0 0 0 2.8808,6.43946 70.588127,70.588127 0 0 0 3.5117,6.12109 70.588127,70.588127 0 0 0 4.1035,5.74023 70.588127,70.588127 0 0 0 4.6583,5.30079 70.588127,70.588127 0 0 0 5.1621,4.80859 70.588127,70.588127 0 0 0 5.6171,4.26953 70.588127,70.588127 0 0 0 6.0157,3.68945 70.588127,70.588127 0 0 0 6.3535,3.06836 70.588127,70.588127 0 0 0 6.6269,2.41993 70.588127,70.588127 0 0 0 6.836,1.74609 70.588127,70.588127 0 0 0 6.9765,1.05273 70.588127,70.588127 0 0 0 7.0489,0.35352 70.588127,70.588127 0 0 0 4.9922,-0.17774 70.588127,70.588127 0 0 0 7.0039,-0.8496 70.588127,70.588127 0 0 0 6.8847,-1.54493 70.588127,70.588127 0 0 0 6.6973,-2.22461 70.588127,70.588127 0 0 0 6.4394,-2.88281 70.588127,70.588127 0 0 0 2.3614,-1.35351 69.87384,69.87384 0 0 0 22.4941,-51.26954 69.87384,69.87384 0 0 0 -69.873,-69.87304 69.87384,69.87384 0 0 0 -38.9707,11.94726 z"
           style="opacity:1;fill:#f5f5f5;fill-opacity:1;stroke:none;stroke-width:5.3670001;stroke-miterlimit:4;stroke-dasharray:none;stroke-opacity:1" />
      </g>
    </g>
  </g>
</svg>
