<?xml version="1.0" encoding="UTF-8" standalone="no"?>
<svg
   xmlns:dc="http://purl.org/dc/elements/1.1/"
   xmlns:cc="http://creativecommons.org/ns#"
   xmlns:rdf="http://www.w3.org/1999/02/22-rdf-syntax-ns#"
   xmlns:svg="http://www.w3.org/2000/svg"
   xmlns="http://www.w3.org/2000/svg"
   xmlns:sodipodi="http://sodipodi.sourceforge.net/DTD/sodipodi-0.dtd"
   xmlns:inkscape="http://www.inkscape.org/namespaces/inkscape"
   height="25"
   width="25"
   id="svg2"
   version="1.1"
   inkscape:version="0.48.4 r9939"
   sodipodi:docname="twt.svg">
  <metadata
     id="metadata12">
    <rdf:RDF>
      <cc:Work
         rdf:about="">
        <dc:format>image/svg+xml</dc:format>
        <dc:type
           rdf:resource="http://purl.org/dc/dcmitype/StillImage" />
      </cc:Work>
    </rdf:RDF>
  </metadata>
  <defs
     id="defs10" />
  <sodipodi:namedview
     pagecolor="#ffffff"
     bordercolor="#666666"
     borderopacity="1"
     objecttolerance="10"
     gridtolerance="10"
     guidetolerance="10"
     inkscape:pageopacity="0"
     inkscape:pageshadow="2"
     inkscape:window-width="1366"
     inkscape:window-height="713"
     id="namedview8"
     showgrid="false"
     inkscape:zoom="7.3740779"
     inkscape:cx="-12.072306"
     inkscape:cy="16.002001"
     inkscape:window-x="0"
     inkscape:window-y="24"
     inkscape:window-maximized="1"
     inkscape:current-layer="svg2" />
  <g
     id="g3752"
     transform="translate(60.482137,22.340526)">
    <path
       transform="matrix(1.1379749,0,0,1.1379749,8.34502,-0.36694084)"
       d="m -38.51329,-8.3249502 c 0,6.0665302 -4.917895,10.9844246 -10.984425,10.9844246 -6.06653,0 -10.984425,-4.9178944 -10.984425,-10.9844246 0,-6.0665298 4.917895,-10.9844248 10.984425,-10.9844248 6.06653,0 10.984425,4.917895 10.984425,10.9844248 z"
       sodipodi:ry="10.984425"
       sodipodi:rx="10.984425"
       sodipodi:cy="-8.3249502"
       sodipodi:cx="-49.497715"
       id="path2982"
       style="opacity:0;fill:#b3b3b3;fill-opacity:1;fill-rule:nonzero;stroke:none"
       sodipodi:type="arc" />
    <path
       id="path6"
       d="m -38.482137,-15.566226 c -0.698816,0.302222 -1.450618,0.505371 -2.239411,0.597438 0.805788,-0.469344 1.423626,-1.210888 1.714549,-2.096538 -0.753802,0.43532 -1.587582,0.750551 -2.476348,0.919675 -0.710813,-0.73554 -1.723547,-1.194876 -2.845251,-1.194876 -2.151434,0 -3.896975,1.694242 -3.896975,3.785776 0,0.297218 0.03399,0.58643 0.100973,0.863634 -3.239147,-0.158116 -6.112391,-1.666222 -8.033885,-3.956903 -0.335912,0.559411 -0.527861,1.208887 -0.527861,1.903397 0,1.312963 0.687819,2.473814 1.733544,3.151311 -0.639832,-0.02002 -1.239674,-0.189139 -1.766536,-0.474348 v 0.04804 c 0,1.835346 1.343647,3.365468 3.127177,3.713723 -0.326914,0.08606 -0.670823,0.133098 -1.026729,0.133098 -0.250934,0 -0.49487,-0.02302 -0.732807,-0.06805 0.495869,1.5051036 1.93549,2.5999066 3.642041,2.6299286 -1.334649,1.016745 -3.015206,1.621189 -4.841726,1.621189 -0.314917,0 -0.624835,-0.01801 -0.930755,-0.05304 1.726546,1.074788 3.774007,1.702248 5.976427,1.702248 7.170113,0 11.091082,-5.7722326 11.091082,-10.7759016 l -0.011,-0.49036 c 0.7598,-0.53239 1.420627,-1.198879 1.943489,-1.959437 z"
       inkscape:connector-curvature="0"
       style="fill:#ffffff" />
  </g>
</svg>
